# xmcd CD database file
#
# Track frame offsets:
#	150
#	17925
#	41025
#	62437
#	81937
#	109387
#	133500
#	151125
#	178162
#	194025
#	220162
#
# Disc length: 3224 seconds
#
# Revision: 5
# Processed by: cddbd v1.5.2PL0 Copyright (c) Steve Scherf et al.
# Submitted via: CDex 1.81
#
DISCID=9d0c960b
DTITLE=Tropical Jazz Band - 3-My Favorite
DYEAR=1999
DGENRE=Jazz
TTITLE0=Epoca De Oro
TTITLE1=My Favorite Things
TTITLE2=Got To Be Real
TTITLE3=Sing, Sing, Sing
TTITLE4=Por Que No?
TTITLE5=Rocks
TTITLE6=Bitter Sweet Bomba (Bitter Sweet Samba)
TTITLE7=Ruinas
TTITLE8=Cherry Pink And Apple Blossom White
TTITLE9=I Can't Stop Loving You
TTITLE10=Prende El Fuego
EXTD=YEAR: 1999
EXTT0=
EXTT1=
EXTT2=
EXTT3=
EXTT4=
EXTT5=
EXTT6=
EXTT7=
EXTT8=
EXTT9=
EXTT10=
PLAYORDER=
